<?xml version="1.0" encoding="utf-8"?><svg version="1.1" id="Layer_1" xmlns="http://www.w3.org/2000/svg" xmlns:xlink="http://www.w3.org/1999/xlink" x="0px" y="0px" width="105.761px" height="122.88px" viewBox="0 0 105.761 122.88" enable-background="new 0 0 105.761 122.88" xml:space="preserve"><g><path d="M86.27,112.662c0.194-19.858-6.948-33.132-16.682-39.914c-3.773-2.628-7.914-4.284-12.133-4.969 c-4.236-0.685-8.583-0.408-12.747,0.827c-13.737,4.082-25.458,18.736-25.214,44.056H86.27L86.27,112.662L86.27,112.662z M0.909,112.662h9.568c-0.256-27.544,12.171-44.633,27.548-51.198c-15.388-6.565-27.82-23.676-27.548-51.251l-9.568,0.001 C0.408,10.214,0,9.754,0,9.188V1.024C0,0.46,0.408,0,0.909,0h103.942c0.498,0,0.909,0.46,0.909,1.024v8.164 c0,0.564-0.411,1.025-0.909,1.025h-9.57C95.506,33.426,86.7,49.25,74.735,57.589c-2.188,1.522-4.544,2.832-6.994,3.873 c2.447,1.048,4.808,2.354,6.992,3.879c11.955,8.332,20.757,24.139,20.546,47.321l9.572,0.001c0.498,0,0.909,0.463,0.909,1.027 v8.162c0,0.564-0.411,1.027-0.909,1.027L0.909,122.879c-0.501,0-0.909-0.463-0.909-1.027v-8.161 C0,113.125,0.408,112.662,0.909,112.662L0.909,112.662z M86.27,10.214H19.496c-0.26,25.354,11.465,40.025,25.212,44.109 c4.163,1.236,8.511,1.513,12.747,0.826c4.219-0.683,8.359-2.338,12.133-4.966C79.33,43.396,86.478,30.104,86.27,10.214 L86.27,10.214z"/></g></svg>