<?xml version="1.0" encoding="iso-8859-1"?>
<!-- Generator: Adobe Illustrator 19.0.1, SVG Export Plug-In . SVG Version: 6.00 Build 0)  -->
<svg version="1.1" xmlns="http://www.w3.org/2000/svg" xmlns:xlink="http://www.w3.org/1999/xlink" x="0px" y="0px"
	 viewBox="0 0 128 128" style="enable-background:new 0 0 128 128;" xml:space="preserve">
<g id="background" style="display:none;">
	<rect id="bg" x="-286" y="-161" style="display:inline;fill:#F5F5F5;" width="700" height="450"/>
</g>
<g id="Human_x5F_Organs">
	<g id="row3" style="display:none;">
		<path id="pancreas" style="display:inline;fill:#1D252C;" d="M127.627,27.952c-2.201-4.871-13.013-5.29-25.146-0.977
			c-9.103,3.247-22.531,3.806-35.518,4.351c-13.829,0.583-26.881,1.129-34.65,4.82c-2.473,1.18-4.726,2.93-6.669,5.087L8.345,30.845
			l-0.984,1.763c-0.414,0.723-9.97,18.064-6.668,33.616c2.641,12.444,8.339,20.842,16.924,24.99
			c14.282,6.875,32.863,0.076,42.678-4.579c0.868-0.419,1.929-0.114,2.46,0.685L69.372,104l15.655-6.596l-0.116-1.37
			c-0.091-1.116-2.473-27.413-15.15-33.273c-3.651-1.687-7.691-1.548-12.068,0.381c0.414-2.575,0.259-4.896,0.078-6.317
			c2.784-1.332,10.475-4.44,21.313-4.516c13.57-0.076,23.903-5.467,36.981-12.279c1.36-0.71,2.758-1.446,4.195-2.182
			C128.611,33.534,128.456,29.804,127.627,27.952z M68.103,66.198c8.326,3.844,11.9,20.956,12.793,28.795l-9.362,3.945
			l-5.218-13.155l-0.117-0.241c-1.502-2.626-4.856-3.641-7.601-2.334c-9.181,4.364-26.48,10.744-39.26,4.579
			c-7.458-3.59-12.457-11.1-14.839-22.339C2.065,54.008,7.594,40.917,9.86,36.223l13.389,8.042
			c-3.833,5.67-5.736,12.939-4.454,19.193c1.644,7.954,8.041,12.799,17.545,13.294c0.738,0.038,1.45,0.051,2.149,0.051
			c7.109,0,12.379-1.953,15.707-5.823c0.686-0.799,1.256-1.636,1.709-2.499C60.605,65.399,64.71,64.638,68.103,66.198z
			 M118.447,34.485c-1.437,0.736-2.836,1.471-4.208,2.182c-12.612,6.571-22.569,11.759-35.181,11.835
			c-14.826,0.089-24.045,5.417-24.421,5.645l-1.217,0.71l0.324,1.345c0.013,0.076,1.67,7.446-2.525,12.33
			c-2.823,3.285-7.769,4.77-14.671,4.414c-9.88-0.507-13.039-5.848-13.946-10.237c-1.735-8.448,3.69-19.485,11.395-23.138
			c7.044-3.349,19.721-3.882,33.122-4.44c13.285-0.558,27.024-1.129,36.696-4.579c5.762-2.055,10.411-2.74,13.803-2.74
			c3.872,0,6.099,0.901,6.461,1.687C124.325,30.045,123.276,31.986,118.447,34.485z M88.989,39.8l8.391,2.207l-0.337,1.218
			l-11.459-3.006h-0.026c-2.771,0.305-5.594,0.571-8.442,0.812l8.248,3.222l-0.479,1.18l-10.67-4.173h-0.013
			c-1.657,0.14-3.315,0.266-4.972,0.393c-1.463,0.114-2.939,0.228-4.415,0.343l8.08,3.97l-0.583,1.129l-9.97-4.897
			c-3.509,0.292-6.992,0.609-10.307,1.002l8.585,4.782l-0.634,1.104L49.91,43.479c-4.079,0.622-7.251,1.865-9.478,3.742
			l10.851,2.575l-0.298,1.23l-11.654-2.765c-0.453,0.495-0.842,1.015-1.191,1.573c-3.159,5.137-0.777,11.467-0.751,11.531
			l-1.217,0.457c-0.104-0.292-2.616-6.964,0.855-12.622c0.44-0.723,0.958-1.395,1.554-2.017l0.013-0.013l2.888-6.19l1.178,0.533
			l-1.774,3.78c2.292-1.51,5.257-2.537,8.883-3.07h0.013l6.474-4.567l0.764,1.04L52.5,41.868c3.134-0.355,6.384-0.66,9.673-0.939
			c1.852-1.751,3.833-3.704,4.04-4.008l1.178,0.507c-0.052,0.14-0.129,0.393-3.172,3.336c1.644-0.127,3.276-0.254,4.907-0.381
			c1.644-0.127,3.276-0.254,4.92-0.381h0.013l4.144-3.767l0.88,0.926l-2.926,2.664c2.836-0.228,5.671-0.482,8.442-0.786h0.013
			l5.063-4.097l0.829,0.977l-3.535,2.854c9.232-1.078,17.804-2.74,24.382-5.823l0.557,1.142
			C105.628,37.035,97.625,38.697,88.989,39.8z"/>
		<path id="Nose" style="display:inline;fill:#1D252C;" d="M17.699,126.914c-8.96-3.504-14.383-8.884-16.118-15.988
			c-3.99-16.338,13.675-36.51,19.48-43.138c6.043-6.9,9.852-45.242,10.832-67.789l6.647,0.29
			c-0.271,6.206-2.917,60.962-12.474,71.873c-14.065,16.059-20.13,28.571-18.025,37.189c1.21,4.947,5.162,8.668,12.082,11.376
			L17.699,126.914z M49.594,124.046c-0.056-0.028-5.616-3.024-12.017-13.094c-6.348-9.985-18.012-7.058-23.295-4.108l2.161,3.87
			c0.476-0.262,11.711-6.327,17.393,2.613c7.149,11.251,13.491,14.539,13.758,14.673L49.594,124.046z M126.419,110.924
			c3.99-16.34-13.677-36.51-19.482-43.135C100.898,60.89,97.087,22.549,96.106,0l-6.647,0.29
			c0.271,6.206,2.917,60.962,12.471,71.875c14.065,16.055,20.13,28.567,18.025,37.185c-1.208,4.947-5.16,8.67-12.082,11.378
			l2.425,6.187C119.261,123.41,124.683,118.03,126.419,110.924z M94.162,113.327c5.688-8.942,16.917-2.875,17.393-2.613l2.161-3.87
			c-5.281-2.951-16.945-5.884-23.295,4.108c-6.415,10.093-11.973,13.072-12.017,13.094L80.405,128
			C80.671,127.866,87.013,124.578,94.162,113.327z"/>
		<path id="foot" style="display:inline;fill:#1D252C;" d="M31.768,86.883c-0.082,0.049-8.206,3.787-14.027,0.065
			c-5.262-3.362-0.526-15.947,1.743-20.501l-1.48-0.735c-0.362,0.735-8.715,17.775-1.168,22.606c2.269,1.436,4.769,1.91,7.104,1.91
			c4.473,0,8.288-1.746,8.535-1.861L31.768,86.883z M111.276,85.349C83.666,86.9,56.401,68.57,54.757,64.604
			c0.016-15.049,3.404-44.576,3.437-44.869l-4.9-0.555c-0.131,1.224-3.47,30.31-3.47,45.604c0,1.583,1.052,3.313,3.305,5.419
			c7.482,7.018,29.534,19.146,52.162,20.076c2.039,1.616,6.791,4.929,11.61,4.929c0.411,0,0.806-0.016,1.217-0.065
			c2.088-0.261,3.7-0.783,4.933-1.404c0,2.465-5.64,7.361-19.684,8.602c-2.072,0.18-4.835,0.114-7.745,0.049
			c-2.269-0.065-4.605-0.114-6.709-0.049c-12.679,0.392-21.246,0.098-28.811-0.163c-11.264-0.375-20.161-0.686-36.21,1.648
			c-6.792,0.979-11.889-0.604-15.145-4.733c-4.752-6.007-5.065-17.089-0.789-27.568C14.978,54.337,8.482,20.42,8.187,19l-4.835,0.93
			c0.066,0.326,6.496,33.901,0.033,49.766c-4.999,12.242-4.424,24.973,1.48,32.416C7.463,105.409,12.15,109,20.191,109
			c1.381,0,2.845-0.098,4.424-0.326c15.589-2.269,23.877-1.991,35.322-1.6c7.63,0.261,16.296,0.555,29.139,0.163
			c1.957-0.065,4.226-0.016,6.413,0.049c3.059,0.065,5.953,0.147,8.304-0.065c17.201-1.518,24.601-8.292,24.19-13.955
			C127.688,89.201,123.116,84.696,111.276,85.349z M117.92,93.527c-3.503,0.424-7.252-1.534-9.735-3.183
			c1.135,0,2.253-0.033,3.371-0.098c5.756-0.326,9.242,0.784,10.705,2.073C121.192,92.841,119.778,93.298,117.92,93.527z"/>
		<path id="bladder_1_" style="display:inline;fill:#1D252C;" d="M63.496,106c-3.455,0-3.998-3.564-4.523-7.011
			c-0.786-5.155-1.762-11.571-9.478-14.299c-17.595-6.225-26.894-15.175-26.894-25.883c0-3.144,0.768-6.216,2.285-9.144
			c-1.842-1.483-5.179-4.017-10.58-7.625c-6.023-4.025-12.38-9.334-12.647-9.559L0,31.091L9.079,22l1.394,1.098
			c0.151,0.119,15.024,11.803,24.7,15.8c7.635-4.927,17.643-7.629,28.323-7.629c10.674,0,20.661,2.693,28.29,7.607l27.276-16.735
			l8.938,8.95l-1.659,1.389c-0.268,0.223-6.624,5.534-12.647,9.559c-4.701,3.14-9.158,6.634-11.247,8.312
			c1.291,2.719,1.944,5.557,1.944,8.457c0,10.761-9.338,19.72-27.003,25.909c-8.277,2.9-9.029,9.322-9.634,14.482
			C67.381,102.387,66.957,106,63.496,106z M5.896,30.812c2.296,1.854,6.596,5.235,10.628,7.93
			c6.659,4.449,10.298,7.338,11.875,8.665l1.625,1.36l-1.104,1.815l-0.193,0.342c-1.422,2.532-2.143,5.184-2.143,7.883
			c0,11.213,13.184,18.231,24.245,22.142c9.963,3.525,11.289,12.239,12.082,17.444c0.142,0.934,0.319,2.096,0.526,2.897
			c0.15-0.734,0.267-1.737,0.362-2.552c0.616-5.253,1.646-14.045,12.269-17.766c11.105-3.889,24.342-10.893,24.342-22.165
			c0-2.74-0.742-5.429-2.206-7.992l-0.823-1.442l1.278-1.063c0.25-0.208,6.205-5.15,12.818-9.569l0,0
			c4.033-2.694,8.332-6.076,10.628-7.93l-3.639-3.644L91.674,43.605l-1.07-0.741c-6.992-4.846-16.872-7.626-27.107-7.626
			c-10.3,0-19.872,2.67-26.952,7.519l-0.86,0.589l-1.671-0.633C25.461,39.28,13.487,30.414,9.407,27.297L5.896,30.812z
			 M41.395,45.798c5.92-4.055,13.621-6.096,22.196-6.096c8.648,0,16.676,2.264,22.607,6.376l0.758-1.085
			c-6.152-4.265-14.45-6.613-23.366-6.613c-8.701,0-16.831,2.244-22.939,6.323L41.395,45.798z"/>
		<path id="brain" style="display:inline;fill:#1D252C;" d="M30.873,40.611c-0.611,17.138-17.251,18.544-17.958,18.601l0.134,1.881
			c0.191,0,19.066-1.558,19.735-20.425L30.873,40.611z M116.002,48.705c-1.433-7.79-9.915-12.92-10.278-13.129l-0.974,1.615
			c0.076,0.057,8.1,4.921,9.38,11.856c1.433,7.847-1.834,15.979-1.853,16.055l1.758,0.722
			C114.187,65.463,117.55,57.122,116.002,48.705z M102.132,45.095c-3.076-9.861-8.654-19.076-8.998-19.646l-1.643,0.988
			c0.057,0.114,3.171,5.225,6.018,11.818c-0.688,1.045-7.126,10.64-13.545,10.64v1.9c6.381,0,12.303-7.467,14.424-10.431
			c2.388,5.966,4.337,12.768,3.706,18.126c-0.974,8.113-6.973,14.554-7.05,14.611l1.395,1.311c0.267-0.285,6.515-6.954,7.546-15.694
			c0.42-3.496-0.172-7.505-1.242-11.495c1.681,0.494,4.375,1.691,5.368,4.199l1.777-0.684
			C108.322,46.71,103.68,45.418,102.132,45.095z M83.143,59.668c-0.057,0.114-7.183,11.818-16.564,8.094
			c-9.361-3.705-23.288,4.826-23.861,5.187l0.993,1.615c0.134-0.095,13.698-8.379,22.161-5.035
			c10.89,4.313,18.837-8.759,18.913-8.892L83.143,59.668z M89.141,67.99c-9.17,9.652-23.059,13.11-42.469,10.545l-0.248,1.9
			c4.05,0.532,7.909,0.798,11.539,0.798c14.099,0,25.027-4.009,32.573-11.932L89.141,67.99z M103.298,78.459
			c-4.719,10.982-30.261,6.289-30.529,6.251l-0.344,1.862c0.478,0.095,5.922,1.083,12.284,1.083c7.967,0,17.385-1.558,20.346-8.455
			L103.298,78.459z M64,7C28.714,7,0,27.805,0,53.36c0,6.061,2.426,11.172,7.03,14.782c5.75,4.503,14.271,6.194,23.919,4.883
			c-0.095,1.007-0.019,1.995,0.21,3.002c1.452,6.46,9.533,11.134,16.029,14.877c17.213,9.937,21.302,27.683,21.34,27.854L69.024,121
			h14.366l-2.923-20.653c6.056,1.045,17.442,1.9,26.632-3.838c6.629-4.161,10.832-10.925,12.475-20.102
			C125.096,69.434,128,61.473,128,53.36C128,27.805,99.286,7,64,7z M114.665,73.405l-0.497,0.589l-0.115,0.76
			c-1.28,7.866-4.642,13.566-9.992,16.91c-10.66,6.688-26.039,2.318-26.192,2.28L73.59,92.69l3.21,22.61h-3.286
			c-1.739-5.586-7.623-20.178-23.441-29.317c-5.235-3.04-12.418-7.182-13.335-11.21c-0.172-0.76-0.248-2.014,1.032-3.876
			l1.796-2.603c11.539-8.398,37.846-18.791,38.133-18.886l-0.707-1.767c-0.821,0.323-12.953,5.092-24.32,10.83
			c-0.134-0.589-0.325-1.33-0.573-2.166c0.688-5.434,4.337-8.531,7.871-11.533c0.879-0.76,1.758-1.482,2.541-2.242
			c6.61-2.983,24.014-9.253,27.434-3.382l1.643-0.95c-1.968-3.382-6.725-3.819-11.921-3.059c1.739-7.942,7.718-15.086,7.776-15.162
			l-1.471-1.235c-0.267,0.342-6.706,8.037-8.311,16.758c-4.279,0.836-8.616,2.337-11.749,3.553c2.675-2.983,4.413-5.795,4.795-8.911
			c0.382-3.173,6.285-11.628,8.521-14.611l-1.528-1.14c-0.86,1.14-8.387,11.267-8.903,15.523c-0.458,3.914-3.878,7.676-7.489,11.134
			c-0.802,0.779-1.681,1.52-2.579,2.28c-2.98,2.527-6.304,5.339-7.814,9.671c-0.726-1.786-1.719-3.819-3.057-5.947
			c-2.273-3.629-1.509-5.491-0.248-8.569c0.458-1.14,0.993-2.451,1.414-4.009c9.227-3.724,17.653-16.929,18.016-17.499l-1.624-1.007
			c-0.076,0.133-7.68,12.065-15.895,16.188c0.096-0.684,0.172-1.406,0.229-2.204c0.096-1.995-0.42-3.705-1.471-4.997
			c2.006-1.653,5.903-5.415,5.903-9.994h-1.91c0,3.914-3.764,7.372-5.445,8.721c-0.535-0.342-1.108-0.608-1.758-0.836
			c-4.26-1.387-10.947,0.361-14.462,5.149c-6.782-0.779-11.386,0.513-13.736,3.8c-4.318,6.099,1.013,16.663,1.242,17.1l1.7-0.855
			c-0.038-0.095-5.044-9.975-1.376-15.143c1.968-2.774,6.171-3.762,12.513-2.945l0.573,0.076l0.344-0.494
			c2.885-4.37,8.96-6.08,12.59-4.883c1.643,0.551,3.554,1.881,3.382,5.206c-0.191,3.496-1.165,5.833-2.006,7.904
			c-1.28,3.135-2.388,5.833,0.401,10.298c3.114,4.978,4.299,9.462,4.681,11.305c-3.592,1.862-7.05,3.781-9.953,5.681l-6.228,1.463
			c-9.858,2.356-18.875,1.292-24.148-2.831c-3.21-2.546-4.852-6.004-4.852-10.317C5.731,30.94,31.866,12.7,64,12.7
			c32.134,0,58.269,18.24,58.269,40.66C122.269,60.371,119.632,67.306,114.665,73.405z"/>
	</g>
	<g id="row2" style="display:none;">
		<path id="heart" style="display:inline;fill:#1D252C;" d="M104.378,63.321c-2.017-6.326-6.591-10.191-12.387-12.683l1.08-19.52
			l-3.002,0.591c-0.556,0.096-2.049,0.399-4.113,0.911l2.065-15.894l-2.97,0.272c-0.206,0.032-2.319,0.224-5.59,0.687
			c1.842-1.741,3.812-3.355,4.828-4.137l2.62-2.013L73.283,2.14l-7.448,8.179L61.991,0l-15.77,1.869l2.239,22.923L32.801,7.54
			L19,15.607L38.296,43.05c-2.128,4.281-3.351,7.859-3.78,9.169c-5.701,6.262-7.814,15.048-5.94,24.792
			c3.923,20.495,35.956,41.692,48.041,46.676C81.859,125.843,88.005,128,93.531,128c2.732,0,5.32-0.527,7.575-1.837
			c3.669-2.14,5.924-6.054,6.67-11.629C108.603,108.4,109,102.202,109,96.148C109,84.231,107.428,72.826,104.378,63.321z
			 M87.973,37.06L87.322,48.96c-6.019-1.805-12.864-2.588-19.312-3.355c-0.524-0.064-1.032-0.128-1.541-0.176
			C71.949,41.485,81.859,38.513,87.973,37.06z M58.846,5.192l5.257,14.137L73.997,8.45l4.86,3.355
			c-2.16,1.837-5.161,4.616-6.845,7.092c-3.573,0.671-7.575,1.534-11.593,2.636c-2.605,0.703-5.003,1.837-7.178,3.259L51.414,6.07
			L58.846,5.192z M61.658,26.149c8.211-2.236,16.548-3.482,20.852-4.025l-1.54,11.821c-7.131,2.077-16.406,5.607-20.678,10.687
			c-0.556-0.08-1.112-0.16-1.668-0.24c-6.035-0.958-11.832-0.128-16.755,2.3C45.284,39.344,51.779,28.849,61.658,26.149z
			 M25.893,17.124l5.987-3.498l15.04,16.581c-2.382,2.572-4.399,5.399-6.067,8.179L25.893,17.124z M103.044,113.895
			c-0.54,4.089-1.953,6.741-4.32,8.115c-5.066,2.939-14.007-0.16-20.296-2.748C67.391,114.71,36.787,94.55,33.262,76.116
			c-1.62-8.466,0.206-15.942,5.146-21.086c3.78-3.946,9.052-6.102,14.897-6.214c0.73,2.236,4.24,10.986,4.24,10.986
			c1.747,7.3-0.524,17.048-0.54,17.144l1.556,0.319c0.063-0.335,1.318-6.693,0.889-13.131c0.302,0.479,0.651,0.99,1.016,1.486
			c2.795,4.984,6.289,9.744,10.402,12.444c5.956,3.882,4.113,8.738,1.969,14.345c-1.588,4.169-3.224,8.482-1.668,12.699l1.493-0.559
			c-1.35-3.642,0.175-7.668,1.668-11.565c2.176-5.735,4.447-11.661-2.589-16.262c-2.525-1.661-4.828-4.185-6.877-7.092
			c1.159,0.639,2.446,1.038,3.859,1.086c12.245,0.383,13.833,3.051,14.023,3.578l0.016,0.032l1.477-0.575
			c-0.699-1.917-3.939-4.265-15.468-4.633c-2.906-0.096-5.225-2.124-6.908-4.329c-3.383-6.102-5.749-12.604-6.877-15.958
			c0.953,0.032,1.922,0.128,2.906,0.288c3.081,0.495,6.368,0.879,9.561,1.246c14.182,1.645,28.841,3.355,32.398,14.441
			C104.251,78.464,105.411,96.355,103.044,113.895z"/>
		<path id="intestine" style="display:inline;fill:#1D252C;" d="M104.509,12.202c-0.236,0.157-23.473,16.172-46.098,16.172
			c-22.578,0-34.777-8.18-34.903-8.275l-0.879,1.306c0.502,0.346,12.671,8.542,35.782,8.542c23.112,0,46.757-16.282,46.993-16.455
			L104.509,12.202z M103.19,36.648c0.016,0.346,1.664,33.681-0.848,39.8c-2.826,6.875-10.425,9.297-22.593,7.205l-0.267,1.542
			c2.936,0.503,5.558,0.739,7.866,0.739c10.362,0,14.68-4.578,16.439-8.888c2.653-6.45,1.036-39.077,0.973-40.477L103.19,36.648z
			 M116.379,5.139l-9.829-4.326c-3.58-1.841-7.489-0.142-9.515,1.038c-2.151-0.96-4.946-1.274-7.442-0.047
			c-2.355,1.148-4.224,3.099-5.087,5.27c-0.141-0.031-0.298-0.047-0.44-0.079c-1.884-0.267-3.878,0.142-5.621,1.18
			c-1.727,1.023-3.313,2.391-4.333,3.776c-0.173,0.22-0.314,0.425-0.44,0.629c-1.915-0.755-4.271-0.849-6.72-0.142
			c-1.978,0.566-3.658,1.447-4.914,2.517c-1.507-1.4-3.627-2.375-5.762-2.659c-1.963-0.267-4.051-0.047-5.746,0.582
			c-0.204,0.079-0.408,0.157-0.612,0.252c-1.24-1.668-3.203-3.036-5.307-3.76c-1.853-0.661-4.035-0.802-5.966-0.44
			c-0.283,0.063-0.565,0.126-0.832,0.205c-0.754-1.4-2.025-2.643-3.643-3.54c-2.716-1.494-6.563-0.11-8.604,0.818
			c-2.449-1.085-5.354-0.708-7.458,1.117l-9.436,8.165c-1.444,1.227-2.449,2.942-2.638,4.83c-0.22,2.297,0.644,4.483,2.308,5.962
			c-0.691,6.985-3.297,38.966,4.789,59.999c2.81,7.315,7.976,11.798,14.162,12.27c5.731,0.441,11.446-2.721,14.508-8.054
			c3.972-6.922,2.952-15.684-2.81-24.053c-4.176-6.072-5.071-22.181-5.071-27.797c0.031-0.944,0.471-3.241,1.57-3.933
			c0.769-0.488,2.057-0.079,2.999,0.33c0.691,0.315,0.958,0.865,1.036,1.164c0.094,0.283,0.11,0.566,0.031,0.802
			c-0.031,0.063-0.047,0.126-0.078,0.189c0,0.016-0.016,0.031-0.016,0.031c0,0.031-0.016,0.079-0.031,0.11l0.487,0.173l3.564,2.187
			c0.157-0.252,0.283-0.503,0.393-0.771c0.393-0.378,2.104-0.676,3.643-0.142c1.523,0.535,2.528,1.668,2.653,2.108
			c-0.031,0.157-0.063,0.299-0.079,0.456l2.575,0.409l1.978,0.676c0.047-0.126,0.094-0.268,0.126-0.409
			c0.345-0.346,1.758-0.802,3.329-0.582c1.617,0.22,2.795,1.274,2.889,1.683v0.315l2.151,0.031c0.141,0,0.267,0,0.393,0.031
			l2.135,0.283c0.016-0.126,0.031-0.252,0.031-0.378c0.141-0.472,1.209-1.432,3.093-1.982c1.382-0.393,3.109-0.299,3.658,0.645
			c0.031,0.063,0.078,0.11,0.11,0.173l2.025-1.211l2.073-1.07c0.016,0.063,0.031,0.142,0.016,0.157
			c0.063-0.409,1.052-1.699,2.732-2.69c1.146-0.677,2.386-0.535,2.732,0.047l4.051-2.407c-0.016-0.031-0.063-0.252,0.078-0.629
			c0.22-0.645,0.911-1.605,2.12-2.155c0.832-0.378,1.303-0.252,1.617-0.094c1.444,0.676,2.575,3.382,2.952,4.719
			c0.644,5.946,0.471,17.194,0.33,26.24l-0.063,4.594c-0.047,2.832-0.659,4.719-1.837,5.632c-2.214,1.73-7.065,0.566-10.959-0.362
			c-2.512-0.614-4.883-1.196-6.846-1.117c-0.581,0.016-1.193,0.016-1.806,0.016c-6.406,0.016-16.093,0.031-17.506,17.839
			c-1.382,17.478,3.595,35.553,3.8,36.324L58.553,128h11.415l5.605-33.665c3.784,0.755,11.305,2.014,18.119,1.793
			c11.132-0.346,22.641-11.043,22.641-28.332c0-14.74,0.471-39.832,0.565-44.645l3.533-4.342c1.021-1.258,1.57-2.832,1.57-4.468
			v-0.582C122,10.031,119.802,6.649,116.379,5.139z M117.29,14.342c0,0.535-0.188,1.07-0.518,1.479l-4.553,5.616l-0.016,0.802
			c0,0.299-0.581,29.244-0.581,45.558c0,9.297-5.746,23.235-18.087,23.628c-8.777,0.283-19.233-2.171-19.343-2.202l-2.449-0.582
			l-5.762,34.64h-3.815c-1.178-4.877-4.271-19.318-3.203-32.941c1.083-13.482,6.783-13.482,12.812-13.497
			c0.675,0,1.319,0,1.947-0.031c1.35-0.031,3.407,0.472,5.605,0.991c5.134,1.243,10.944,2.643,14.947-0.488
			c2.371-1.841,3.596-4.971,3.658-9.297l0.063-4.578c0.157-9.753,0.33-20.812-0.377-27.011l-0.063-0.315
			c-0.157-0.629-1.633-6.104-5.511-7.976c-1.743-0.834-3.69-0.818-5.621,0.063c-1.994,0.912-3.595,2.501-4.396,4.357
			c-1.617-0.252-3.407,0.063-5.009,1.023c-1.492,0.881-2.842,2.061-3.737,3.256c-0.078,0.094-0.141,0.189-0.204,0.283
			c-1.633-0.566-3.564-0.598-5.574-0.016c-1.397,0.393-2.842,1.054-4.004,1.966c-1.303-1.101-3.03-1.872-4.773-2.108
			c-1.79-0.236-3.674-0.031-5.228,0.614c-0.063-0.079-0.141-0.157-0.22-0.236c-1.068-1.227-2.606-2.234-4.224-2.8
			c-1.617-0.566-3.517-0.708-5.197-0.378c-0.047,0.016-0.094,0.016-0.141,0.031c-0.659-1.432-1.837-2.58-3.313-3.256
			c-3.595-1.605-6.013-0.897-7.411-0.016c-3.501,2.187-3.753,7.205-3.784,7.834c0,0.897,0.031,22.055,5.904,30.566
			c4.695,6.812,5.637,13.749,2.606,19.019c-0.534,0.928-1.162,1.762-1.884,2.486c-2.402-1.982-17.334-15.841-13.44-50.985
			l-1.554-0.173c-4.176,37.645,12.09,50.891,13.833,52.181c-2.041,1.573-4.522,2.407-7.003,2.202
			c-4.38-0.33-7.992-3.634-10.143-9.266c-8.494-22.118-4.412-58.709-4.365-59.087l0.157-1.353l-1.664-1.227
			c-0.565-0.425-0.911-1.085-0.942-1.809c-0.031-0.708,0.267-1.384,0.816-1.856l9.656-8.353c0.832-0.708,2.025-0.755,2.92-0.11
			l1.209,0.897l1.319-0.724c1.978-1.101,4.585-1.809,5.26-1.432c1.005,0.551,1.743,1.337,1.931,2.045
			c0.047,0.205,0.047,0.393,0,0.566c-0.016,0.047-0.031,0.094-0.047,0.126l-0.157,0.299l4.082,2.344
			c0.126-0.205,0.235-0.409,0.33-0.629l0.094-0.205c0.016-0.031,0.031-0.063,0.047-0.094c0.094-0.157,0.502-0.44,1.366-0.614
			c1.115-0.22,2.465-0.126,3.533,0.252c2.12,0.739,3.438,2.312,3.517,2.957c-0.063,0.205-0.094,0.409-0.126,0.614l2.34,0.315
			l2.214,0.771c0.078-0.189,0.126-0.378,0.157-0.566c0.126-0.173,0.455-0.409,1.005-0.614c0.958-0.362,2.292-0.488,3.47-0.33
			c2.135,0.299,3.768,1.73,3.862,2.454c-0.016,0.142-0.016,0.283-0.016,0.409l2.355,0.031l2.339,0.315
			c0.016-0.157,0.031-0.315,0.031-0.456c0.188-0.85,1.696-2.077,4.035-2.753c1.853-0.535,4.098-0.362,4.899,0.975
			c0.031,0.079,0.063,0.142,0.11,0.205l2.983-1.683l1.13-0.598c-0.016-0.031-0.016-0.047-0.031-0.079
			c0.031-0.551,1.256-2.218,3.486-3.54c0.816-0.488,1.743-0.692,2.544-0.582c0.361,0.063,1.021,0.236,1.35,0.787l4.051-2.391
			c-0.11-0.205-0.11-0.566,0.016-0.96c0.267-0.897,1.178-2.234,2.873-3.068c1.287-0.629,3.093-0.22,4.129,0.503l1.397,0.96
			l1.35-1.007c0.926-0.692,3.988-2.438,5.982-1.416l9.97,4.389c1.696,0.739,2.795,2.438,2.795,4.295V14.342z"/>
		<path id="stomach" style="display:inline;fill:#1D252C;" d="M5.042,123.875H0c0-38.632,21.395-44.804,44.514-45.721
			c10.64-0.421,16.276-11.719,16.754-33.578c0.107-4.907-7.817-21.308-12.838-30.493l4.435-2.377
			c1.393,2.55,13.615,25.147,13.443,32.978c-0.545,24.975-7.809,37.914-21.592,38.461C24.641,83.94,5.042,87.74,5.042,123.875z
			 M21.047,110.321c1.075-4.048,3.069-6.627,5.926-7.661c3.608-1.304,8.591-0.12,13.327,3.174c9.359,6.51,25.018,7.319,39.893,2.053
			c21.856-7.732,38.449-26.566,45.527-51.67c7.502-26.606-4.748-40.633-18.716-44.887C92.088,6.784,78.962,12.773,73.03,21.772
			L64.06,4l-4.51,2.234l13.952,27.639l1.933-5.694c3.909-11.515,18.71-15.538,30.088-12.076c17.839,5.434,19.622,23.59,15.343,38.77
			c-6.633,23.521-22.074,41.13-42.368,48.31c-13.381,4.738-27.237,4.17-35.298-1.437c-6.176-4.297-12.723-5.677-17.958-3.777
			c-3.092,1.12-7.176,3.952-9.07,11.08c-3.059,11.512-3.389,14.203-3.389,14.826L17.82,124
			C17.827,123.911,18.029,121.678,21.047,110.321z M104.235,19.834c-12.001-3.656-22.304,2.536-24.964,10.373l1.594,0.53
			c2.995-8.826,14.247-11.94,22.877-9.312c8.861,2.7,16.59,11.762,11.703,29.103l1.618,0.447
			C122.275,32.483,113.853,22.763,104.235,19.834z"/>
		<path id="Kidney" style="display:inline;fill:#1D252C;" d="M58.422,9.268c-13.357,2.244-26.877,15.857-26.877,37.549h1.643
			c0-20.761,12.831-33.776,25.514-35.904c3.811-0.648,8.017,0.15,11.533,2.161l0.805-1.446C67.212,9.435,62.612,8.57,58.422,9.268z
			 M90.869,2.669v2.493c0,16.622-12.634,27.244-19.287,31.698c0.131-0.482,0.329-0.947,0.591-1.413
			c0.969-1.662,2.99-3.524,4.929-5.319c3.335-3.075,6.769-6.233,6.769-10.09c0-5.136-2.431-10.073-6.867-13.879
			C71.385,1.34,63.4-0.888,56.155,0.326C36.047,3.7,22,24.062,22,49.843C22,77.17,37.509,99.41,56.566,99.41
			c7.475,0,16.084-2.51,20.684-9.159c1.659,1.878,2.514,5.037,2.514,9.292V128h13.422l0.246-2.227
			c0.016-0.183,2.037-18.966,2.037-32.945c0-22.357-18.712-29.853-25.382-31.815c0.23-0.947,0.559-1.945,0.887-2.975
			c0-0.017,0.016-0.05,0.016-0.066c12.929-5.003,23-15.492,29.177-30.468c4.814-11.619,5.602-21.725,5.635-22.157L106,2.669H90.869z
			 M90.541,92.828c0,10.904-1.265,24.833-1.791,30.186h-4.058v-23.47c0-7.895-2.579-11.918-5.159-13.946
			c0.082-0.249,0.164-0.499,0.23-0.765c1.347-4.887-2.119-8.893-5.175-12.417c-1.742-2.028-3.549-4.089-4.485-6.233
			C76.576,68.244,90.541,74.826,90.541,92.828z M67.918,32.955C65.635,36.928,66.407,41,67.08,44.574
			c0.345,1.828,0.674,3.541,0.674,5.269c0,2.144-0.706,4.322-1.462,6.649c-1.199,3.707-2.431,7.546-0.772,11.519
			c1.232,2.909,3.335,5.336,5.356,7.696c2.974,3.424,4.731,5.652,4.14,7.779c-2.234,8.062-11.007,10.937-18.449,10.937
			c-16.347,0-29.637-19.996-29.637-44.58c0-23.287,12.354-41.622,30.048-44.597c1.051-0.183,2.119-0.266,3.187-0.266
			c4.912,0,9.923,1.795,13.652,4.987c3.319,2.842,5.126,6.416,5.126,10.073c0,1.646-2.859,4.289-5.159,6.4
			C71.565,28.484,69.265,30.611,67.918,32.955z M72.551,51.854c0.082-0.665,0.131-1.33,0.131-2.011c0-2.211-0.394-4.239-0.756-6.2
			c-0.066-0.349-0.131-0.681-0.181-0.997c5.914-3.441,22.672-14.877,23.97-34.99h4.846C99.313,15.984,93.843,41.415,72.551,51.854z"
			/>
		<path id="ear" style="display:inline;fill:#1D252C;" d="M65.137,12.193v2.169c17.278,0,30.306,13.429,30.306,31.241h2.146
			C97.59,26.555,83.639,12.193,65.137,12.193z M65.202,0c-24.254,0-44,19.764-44,44.019h6.439c0-20.675,16.849-37.51,37.561-37.51
			c20.734,0,36.359,16.141,36.359,37.51c0,12.561-11.912,25.86-21.506,36.534c-7.126,7.94-13.286,14.818-14.423,20.805
			c-1.567,8.374-8.693,20.133-19.617,20.133c-10.796,0-19.575-8.743-19.575-19.525H20C20,116.328,31.676,128,46.014,128
			c10.259,0,22.858-8.895,25.949-25.427c0.794-4.187,6.654-10.739,12.857-17.66C95.143,73.416,108,59.097,108,44.019
			C108,19.352,89.198,0,65.202,0z M86.086,44.258h-4.293c0-10.717-8.714-19.417-19.446-19.417c-9.38,0-17.235,6.66-19.038,15.512
			c7.19,1.844,12.535,8.591,12.535,16.618c0,9.459-7.426,17.161-16.548,17.161v-4.339c6.761,0,12.256-5.749,12.256-12.822
			c0-6.574-4.765-11.997-10.882-12.713h-2.061c0-13.104,10.667-23.756,23.739-23.756C75.44,20.502,86.086,31.154,86.086,44.258z"/>
	</g>
	<g id="row1">
		<path id="tongue" style="display:none;fill:#1D252C;" d="M123.368,51.494c-0.124-0.042-11.641-4.381-28.108-15.881
			c-9.388-6.557-17.752-6.192-23.103-4.732c-3.761,1.039-6.595,2.724-8.157,3.833c-1.562-1.109-4.383-2.794-8.143-3.833
			c-5.351-1.46-13.715-1.825-23.103,4.732C16.273,47.113,4.77,51.452,4.645,51.494L0,53.207l28.329,13.705
			C35.671,86.093,49.04,98,64.041,98c15.001,0,28.384-11.935,35.726-31.144L128,53.207L123.368,51.494z M64.041,93.788
			c-15.236,0-29.228-15.207-34.786-37.856c-0.083-0.295,0.429-1.123,2.088-2.078c3.194-1.839,8.987-3.173,14.918-3.173
			c5.834,0,11.835,1.292,15.665,4.676v27.325h4.148V55.426c3.235-2.864,8.517-4.479,15.001-4.578
			c5.945-0.07,12.015,1.208,15.554,3.244c1.59,0.927,2.143,1.727,2.143,2.106c0,0.028-0.014,0.042-0.014,0.07
			C93.145,78.707,79.195,93.788,64.041,93.788z M101.675,61.267c0.401-1.292,0.774-2.612,1.106-3.96
			c0.359-1.474,0.318-4.325-4.106-6.88c-4.189-2.415-10.936-3.847-17.656-3.791c-7.037,0.098-12.969,1.868-16.964,5.027
			c-9.678-7.807-27.61-5.589-34.758-1.474c-4.369,2.513-4.424,5.322-4.065,6.768c0.359,1.488,0.76,2.935,1.203,4.367l-16.01-7.737
			c4.908-2.289,13.66-6.81,24.679-14.505c15.319-10.686,27.043-0.576,27.527-0.154L64,40.163l1.383-1.236
			c0.111-0.098,12.125-10.601,27.527,0.154c11.019,7.695,19.771,12.216,24.679,14.505L101.675,61.267z"/>
		<path id="eye" style="display:none;fill:#1D252C;" d="M64,99c-14.224,0-29.548-5.751-44.314-16.631
			C8.629,74.222,1.82,66.167,1.535,65.829L0,64l1.535-1.829c0.285-0.338,7.094-8.392,18.151-16.54C34.452,34.75,49.776,29,64,29
			s29.546,5.75,44.313,16.631c11.058,8.148,17.867,16.201,18.153,16.54L128,64l-1.535,1.829c-0.285,0.339-7.094,8.392-18.153,16.54
			C93.546,93.249,78.224,99,64,99z M7.508,63.998C13.754,70.675,36.946,93.324,64,93.324c27.051,0,50.24-22.646,56.49-29.324
			C114.24,57.322,91.051,34.676,64,34.676C36.902,34.676,13.745,57.32,7.508,63.998z M64,90.486
			c-27.687,0-50.42-25.603-50.647-25.862L12.807,64l0.547-0.624C13.58,63.117,36.313,37.514,64,37.514s50.42,25.603,50.647,25.862
			L115.193,64l-0.547,0.624C114.42,64.883,91.687,90.486,64,90.486z M15.343,64C18.994,67.893,39.574,88.595,64,88.595
			S109.006,67.893,112.657,64C109.006,60.107,88.426,39.405,64,39.405S18.994,60.107,15.343,64z M64,86.703
			c-12.47,0-22.614-10.185-22.614-22.703S51.53,41.297,64,41.297S86.614,51.482,86.614,64S76.47,86.703,64,86.703z M64,46.973
			c-9.352,0-16.96,7.639-16.96,17.027S54.648,81.027,64,81.027S80.96,73.388,80.96,64S73.352,46.973,64,46.973z M75.509,58.477
			c-1.204,1.357-2.968,2.202-4.914,2.202c-3.644,0-6.596-2.963-6.596-6.622c0-1.01,0.231-1.987,0.643-2.831
			c-0.214-0.016-0.429-0.016-0.643-0.016c-7.041,0-12.746,5.728-12.746,12.796c0,7.052,5.705,12.78,12.746,12.78
			c7.041,0,12.746-5.728,12.746-12.78C76.746,62.02,76.3,60.149,75.509,58.477z"/>
		<path id="lungs" style="fill:#1D252C;" d="M114.027,125c-7.021,0-13.33-8.229-15.233-10.968
			c-5.357-7.709-9.983-11.554-16.386-16.874c-1.058-0.88-2.162-1.798-3.321-2.775c-7.619-6.426-6.955-25.616-6.093-35.164
			l-8.291-5.86l-9.695,5.889c0.874,9.657,1.515,28.709-6.095,35.135c-1.16,0.978-2.263,1.895-3.322,2.775
			c-6.402,5.322-11.029,9.166-16.384,16.875c-2.102,3.024-9.57,12.729-17.429,10.69c-6.034-1.565-9.692-9.131-11.184-23.13
			C-2.565,71.963,7.005,43.973,26.193,26.72c6.55-5.892,12.039-7.989,16.791-6.389c7.108,2.387,9.046,12.073,9.977,16.728
			c0.208,1.04,0.408,2.261,0.598,3.649c2.03-0.821,3.147-1.583,3.473-2.014c0.001-4.197,0.032-10.003,0.032-10.003l0.014-2.79
			h14.874v12.541c0.206,0.285,0.935,0.885,2.587,1.58c0.157-1.086,0.323-2.075,0.497-2.958c0.932-4.66,2.87-14.346,9.98-16.733
			c4.748-1.598,10.245,0.495,16.8,6.387c19.183,17.26,28.748,45.249,25.59,74.872c-1.491,14-5.149,21.565-11.183,23.13
			C115.485,124.912,114.752,125,114.027,125z M39.836,25.437c-2.533,0-5.928,1.861-9.937,5.468
			C12.047,46.958,3.161,73.158,6.128,100.992c1.631,15.289,5.465,17.889,7.037,18.296c2.785,0.722,7.513-2.761,11.481-8.474
			c5.791-8.335,10.916-12.594,17.403-17.986c1.049-0.871,2.142-1.779,3.29-2.748c4.639-3.916,5.336-18.868,3.968-31.949
			l-0.186-1.775l1.508-1l14.303-8.687l13.927,9.843l-0.17,1.64c-1.254,12.132-0.966,27.765,3.97,31.928
			c1.148,0.969,2.241,1.877,3.29,2.748c6.488,5.393,11.613,9.652,17.403,17.986c3.968,5.712,8.684,9.205,11.482,8.474
			c1.573-0.407,5.407-3.007,7.037-18.296l2.767,0.299l-2.767-0.299c2.966-27.829-5.916-54.031-23.761-70.088
			c-4.799-4.312-8.72-6.129-11.334-5.251c-4.051,1.361-5.615,9.177-6.283,12.515c-0.307,1.554-0.602,3.599-0.852,5.91l-0.354,3.281
			l-3.155-0.882c-6.559-1.831-9.747-4.409-9.747-7.88V31.51h-3.769c-0.009,2.11-0.019,5.037-0.019,7.398
			c0,3.488-3.474,6.189-10.623,8.256l-3.183,0.92l-0.352-3.319c-0.287-2.714-0.602-4.935-0.935-6.598
			c-0.668-3.338-2.231-11.156-6.28-12.515C40.796,25.508,40.333,25.437,39.836,25.437z M95.004,34.212l-1.14,1.475
			c15.07,11.822,23.41,32.033,22.31,54.066l1.852,0.093C119.158,67.207,110.552,46.408,95.004,34.212z M11.738,89.72
			c-1.031-22.039,7.376-42.223,22.49-53.992l-1.134-1.479C17.502,46.39,8.826,67.159,9.885,89.807L11.738,89.72z M72.107,17.958
			H57.217v5.609h14.889V17.958z M72.107,10.479H57.217v5.609h14.889V10.479z M72.107,3H57.217v5.609h14.889V3z"/>
		<path id="liver" style="display:none;fill:#1D252C;" d="M12.857,64.094l-1.743-0.126c0.958-12.847,7.013-27.84,30.351-26.263
			l-0.119,1.715C23.776,38.237,14.167,46.539,12.857,64.094z M39.726,89.596c22.301,1.031,37.883-15.525,41.973-20.4
			c4.368,0.714,16.419,1.881,27.735-4.29c10.08-5.498,20.712-20.438,18.191-28.772c-0.734-2.426-3.181-6.414-11.347-5.837
			c-18.317,1.285-24.279,1.246-74.796-2.148c-14.416-0.962-25.303,2.709-32.356,10.931c-13.781,16.067-8.624,44.683-5.767,56.24l0,0
			c0.459,1.857,1.655,3.248,3.458,4.021C7.879,99.8,9.172,100,10.624,100C19.715,100,35.057,92.115,39.726,89.596z M8.453,94.105
			c-8.233-33.31,1.501-47.996,4.681-51.702c5.914-6.896,15.337-9.958,27.988-9.11c50.86,3.417,56.891,3.456,75.529,2.147
			c3.436-0.24,5.439,0.487,5.947,2.164c1.492,4.934-6.527,17.789-15.71,22.797c-12.01,6.551-25.509,3.495-25.64,3.463l-1.693-0.4
			l-1.034,1.375c-0.158,0.211-16.112,21.037-39.236,19.573l-0.771-0.049l-0.675,0.371c-9.471,5.193-24.711,11.686-28.926,9.887
			C8.593,94.481,8.515,94.355,8.453,94.105L8.453,94.105z"/>
		<path id="Tooth" style="display:none;fill:#1D252C;" d="M16.876,48.068c-5.992-21.023,4.285-29.142,8.982-31.658
			c8.759-4.692,20.437-2.733,26.587,4.461l-1.91,1.629c-5.411-6.331-15.732-8.031-23.49-3.879
			c-8.795,4.709-11.621,15.193-7.754,28.761L16.876,48.068z M47.067,124.425L47.067,124.425c6.473-5.399,6.654-17.056,6.847-29.397
			c0.251-16.061,0.998-26.59,8.787-26.59c8.36,0,9.955,13.284,11.171,30.653c0.893,12.747,1.598,22.815,7.842,25.568
			c3.383,1.493,6.565,1.631,9.453,0.42c7.951-3.334,12.809-16.208,23.454-44.417c2.716-7.198,5.802-15.375,9.387-24.581
			c8.106-20.811,3.708-39.144-11.763-49.043C97.333-2.505,76.486-1.584,63.894,8.657C51.437-1.543,30.92-3.009,16.287,5.751
			C9.042,10.088-6.736,23.498,3.183,54.264c1.965,6.095,3.796,11.9,5.522,17.374c10.76,34.125,16.687,52.924,27.034,55.951
			c0.936,0.273,1.876,0.41,2.824,0.41C41.365,128,44.215,126.803,47.067,124.425z M61.181,16.372l2.708,2.8l2.708-2.8
			c9.588-9.913,28.631-11.288,41.584-2.997c7.288,4.663,18.123,16.056,8.806,39.977c-3.596,9.233-6.691,17.435-9.416,24.656
			c-8.646,22.914-14.358,38.053-19.32,40.133c-0.636,0.266-1.61,0.467-3.488-0.363c-2.116-1.21-2.906-12.48-3.377-19.213
			C80.213,81.79,78.75,60.913,62.701,60.913c-15.788,0-16.083,18.851-16.319,33.998c-0.151,9.633-0.321,20.55-4.143,23.738
			c-2.669,2.222-3.962,1.84-4.381,1.72C31.37,118.47,24.196,95.72,15.89,69.377c-1.731-5.488-3.567-11.309-5.537-17.421
			c-5.904-18.312-2.422-32.43,9.808-39.751c5.253-3.145,11.547-4.663,17.799-4.663C46.817,7.543,55.589,10.591,61.181,16.372z"/>
	</g>
</g>
</svg>
