<svg xmlns="http://www.w3.org/2000/svg" viewBox="0 0 38 48"><defs><style>.cls-1{fill:#1e0f00;}</style></defs><title>Asset 491</title><g id="Layer_2" data-name="Layer 2"><g id="_1" data-name="1"><path class="cls-1" d="M19,48A19,19,0,1,1,38,29,19,19,0,0,1,19,48Zm0-36A17,17,0,1,0,36,29,17,17,0,0,0,19,12Z"/><path class="cls-1" d="M19,33a4,4,0,1,1,4-4A4,4,0,0,1,19,33Zm0-6a2,2,0,1,0,2,2A2,2,0,0,0,19,27Z"/><path class="cls-1" d="M19,8a4,4,0,1,1,4-4A4,4,0,0,1,19,8Zm0-6a2,2,0,1,0,2,2A2,2,0,0,0,19,2Z"/><rect class="cls-1" x="18" y="7" width="2" height="4"/><rect class="cls-1" x="0.17" y="12" width="5.66" height="2" transform="translate(-8.31 5.93) rotate(-45)"/><rect class="cls-1" x="3.75" y="12.98" width="2" height="3.54" transform="translate(-9.04 7.68) rotate(-45)"/><rect class="cls-1" x="34" y="10.17" width="2" height="5.66" transform="translate(1.06 28.56) rotate(-45)"/><rect class="cls-1" x="31.48" y="13.75" width="3.54" height="2" transform="translate(-0.69 27.83) rotate(-45)"/><rect class="cls-1" x="18" y="15" width="2" height="11"/><rect class="cls-1" x="33" y="28" width="4" height="2"/><rect class="cls-1" x="1" y="28" width="4" height="2"/><rect class="cls-1" x="33" y="28" width="4" height="2"/><rect class="cls-1" x="1" y="28" width="4" height="2"/><rect class="cls-1" x="30.86" y="20" width="4" height="2" transform="translate(-6.1 19.24) rotate(-29.99)"/><rect class="cls-1" x="3.14" y="36" width="4" height="2" transform="translate(-17.81 7.53) rotate(-29.99)"/><rect class="cls-1" x="25" y="14.14" width="4" height="2" transform="translate(0.39 30.96) rotate(-60.01)"/><rect class="cls-1" x="9" y="41.86" width="4" height="2" transform="translate(-31.62 30.96) rotate(-60.01)"/><rect class="cls-1" x="10" y="13.14" width="2" height="4" transform="translate(-6.1 7.53) rotate(-30)"/><rect class="cls-1" x="26" y="40.86" width="2" height="4" transform="translate(-17.81 19.24) rotate(-30)"/><rect class="cls-1" x="4.14" y="19" width="2" height="4" transform="translate(-15.61 14.95) rotate(-60)"/><rect class="cls-1" x="31.86" y="35" width="2" height="4" transform="translate(-15.62 46.95) rotate(-60)"/><rect class="cls-1" x="18" y="43" width="2" height="4"/></g></g></svg>