<svg id="Layer_1" data-name="Layer 1" xmlns="http://www.w3.org/2000/svg" viewBox="0 0 122.88 109.08"><title>voice-command</title><path d="M75.92,25.86a3.31,3.31,0,1,0,5.75,2.22,3.36,3.36,0,0,0-.8-2.16,17.61,17.61,0,0,1,4.49,1.68,1.86,1.86,0,1,0,1.72-3.29,19.36,19.36,0,0,0-8.54-2.4,16.09,16.09,0,0,0-8.82,2.45,1.86,1.86,0,0,0,1.92,3.19,13,13,0,0,1,4.28-1.69ZM45.78,79.67a2.55,2.55,0,0,1,.67,1.48,2.65,2.65,0,0,1-2.34,2.92h0c-2.26.28-5.37-3.81-6.21-5A17,17,0,0,1,35.09,73,18.69,18.69,0,0,1,36.92,60.3c1.51-3.11,6.27-.72,4.74,2.36-3.29,6.51-1.75,12.25,3.75,16.65.12.12.26.24.37.36Zm-25,25.08a2.66,2.66,0,0,1-3.4,4c-.22-.14-.48-.35-.69-.51A46,46,0,0,1,6.45,97.45,37.2,37.2,0,0,1,.8,84.25,37.66,37.66,0,0,1,.59,69.88,47.47,47.47,0,0,1,5.78,55.37c1.62-3.09,6.3-.57,4.68,2.52A41.47,41.47,0,0,0,5.84,70.71,32.36,32.36,0,0,0,6,83.13a32.72,32.72,0,0,0,4.91,11.41A40.48,40.48,0,0,0,20,104a5.7,5.7,0,0,1,.76.71ZM33,90.67a2.66,2.66,0,0,1-3.43,4l-.05,0a34.72,34.72,0,0,1-8.09-8,24.29,24.29,0,0,1-4.12-9.31,24.91,24.91,0,0,1,.12-10.2,35.43,35.43,0,0,1,4.33-10.59c2-3.05,6.33-.1,4.58,2.74a30.54,30.54,0,0,0-3.67,8.88A18.52,18.52,0,0,0,25.8,83.74a29.71,29.71,0,0,0,6.64,6.54,1.92,1.92,0,0,1,.51.39Zm61.52,3.75a37.65,37.65,0,0,1-1.3,11,2.2,2.2,0,0,1-4.25-1.14,33.4,33.4,0,0,0,1-5.59,27,27,0,0,0,.16-3c-2.85.78-5.67,1.42-8.33,1.88a42.39,42.39,0,0,1-14.8.44,14.06,14.06,0,0,1-7.55-3.61,9.87,9.87,0,0,1-2.71-7.89,22.18,22.18,0,0,1,2.34-8c-.33-1.57-.6-3.2-.82-4.88a161.15,161.15,0,0,1-.95-16.63v-1l-5.61-.33H51.6a7.06,7.06,0,0,1-3.7-1.14A6.46,6.46,0,0,1,45.56,52a7.8,7.8,0,0,1-.76-3.6,11.75,11.75,0,0,1,2-6.08l5.85-11.94c2.88-5.89,2.84-6.67,2.72-9.77a53.78,53.78,0,0,1,1.1-14.76,29.85,29.85,0,0,1,2-5.82l4,1.65a25.12,25.12,0,0,0-1.85,5.21,49.41,49.41,0,0,0-1,13.57c.16,4,.2,5-3.18,11.87l-5.86,12a2.59,2.59,0,0,1-.17.33,7.55,7.55,0,0,0-1.4,3.87,3.31,3.31,0,0,0,.32,1.57,2.38,2.38,0,0,0,.82.93,2.83,2.83,0,0,0,1.43.42h.18c4.94.3,9,.41,13.92.83a2.2,2.2,0,0,1-.37,4.39h-.11l-3.71-.22c.07,3.38.09,6.72.36,10.09a14.75,14.75,0,0,0,4.86,1.45,10.23,10.23,0,0,0,5.24-.83,2.2,2.2,0,0,1,1.77,4A14.54,14.54,0,0,1,66.4,72.3a17.44,17.44,0,0,1-4-.92c.06.59.12,1.18.2,1.78.23,1.71.54,3.47.93,5.25A2.18,2.18,0,0,1,63.22,80a18.41,18.41,0,0,0-2.14,6.83,5.63,5.63,0,0,0,1.45,4.53,9.8,9.8,0,0,0,5.24,2.37A37.76,37.76,0,0,0,81,93.34a83.6,83.6,0,0,0,15-4.13,40.94,40.94,0,0,0,10.57-5.74c2.79-2.24,4.07-5.87,5.16-9,.23-.63.44-1.25.54-1.52l.32-.86c1.36-3.72,3.7-10.16,6.72-12.49A2.19,2.19,0,1,1,122,63.09c-2,1.55-4.08,7.24-5.27,10.51-.24.65-.18.5-.32.88-.25.68-.38,1.06-.52,1.45-1.29,3.67-2.79,8-6.58,11a44.64,44.64,0,0,1-11.72,6.37c-1,.4-2.07.78-3.14,1.13Z"/></svg>